<?xml version="1.0" encoding="iso-8859-1"?>
<!-- Generator: Adobe Illustrator 19.0.0, SVG Export Plug-In . SVG Version: 6.00 Build 0)  -->
<svg version="1.1" id="Capa_1" xmlns="http://www.w3.org/2000/svg" xmlns:xlink="http://www.w3.org/1999/xlink" x="0px" y="0px"
	 viewBox="0 0 480 480" style="enable-background:new 0 0 480 480;" xml:space="preserve">
<g>
	<g>
		<path d="M367.696,240.544l-15.952-1.128C347.699,293.766,302.501,335.845,248,336h-16c-54.495-0.154-99.691-42.224-103.744-96.568
			l-15.952,1.136c4.252,56.596,47.465,102.529,103.696,110.224V432h-30.112c-9.098-0.032-17.423,5.113-21.464,13.264l-11.584,23.16
			c-1.975,3.952-0.372,8.757,3.58,10.732c1.112,0.555,2.337,0.844,3.58,0.844h160c4.418,0.024,8.02-3.538,8.044-7.956
			c0.007-1.256-0.282-2.496-0.844-3.62l-11.584-23.16c-4.048-8.164-12.391-13.311-21.504-13.264H264v-81.208
			C320.239,343.095,363.455,297.149,367.696,240.544z M232,352h16v80h-16V352z M294.112,448c3.029,0.002,5.798,1.714,7.152,4.424
			h0.032l5.76,11.576H172.944l5.792-11.576c1.354-2.71,4.123-4.422,7.152-4.424H294.112z"/>
	</g>
</g>
<g>
	<g>
		<path d="M248,0h-16c-48.577,0.057-87.943,39.423-88,88v144c0.057,48.577,39.423,87.943,88,88h16c48.577-0.057,87.943-39.423,88-88
			V88C335.943,39.423,296.577,0.057,248,0z M320,232c-0.044,39.746-32.254,71.956-72,72h-16c-39.746-0.044-71.956-32.254-72-72V88
			c0.044-39.746,32.254-71.956,72-72h16c39.746,0.044,71.956,32.254,72,72V232z"/>
	</g>
</g>
<g>
</g>
<g>
</g>
<g>
</g>
<g>
</g>
<g>
</g>
<g>
</g>
<g>
</g>
<g>
</g>
<g>
</g>
<g>
</g>
<g>
</g>
<g>
</g>
<g>
</g>
<g>
</g>
<g>
</g>
</svg>
